# Blender v3.0.1 OBJ File: 'Rocket.blend'
# www.blender.org
mtllib Rocket.mtl
o Cylinder
v 0.000000 3.371720 -1.000000
v 0.000000 5.371720 -1.000000
v 0.866025 3.371720 -0.500000
v 0.866025 5.371720 -0.500000
v 0.866025 3.371720 0.500000
v 0.866025 5.371720 0.500000
v -0.000000 3.371720 1.000000
v -0.000000 5.371720 1.000000
v -0.866025 3.371720 0.500000
v -0.866025 5.371720 0.500000
v -0.866025 3.371720 -0.500000
v -0.866025 5.371720 -0.500000
v 0.350818 7.449162 -0.202545
v 0.000000 7.449162 -0.405090
v 0.350818 7.449162 0.202545
v 0.000000 7.449162 0.405090
v -0.350818 7.449162 0.202545
v -0.350818 7.449162 -0.202545
v 0.000000 1.024760 -1.000000
v 0.866026 1.024760 -0.500000
v 0.866026 1.024760 0.500000
v 0.000000 1.024760 1.000000
v -0.866025 1.024760 0.500000
v -0.866025 1.024760 -0.500000
v 0.000000 -0.542845 -2.097912
v 1.816846 -0.542845 -1.048956
v 1.816845 -0.542845 1.048956
v -0.000000 -0.542845 2.097912
v -1.816845 -0.542845 1.048956
v -1.816845 -0.542845 -1.048956
vt 1.000000 0.500000
vt 1.000000 1.000000
vt 0.833333 1.000000
vt 0.833333 0.500000
vt 0.666667 1.000000
vt 0.666667 0.500000
vt 0.500000 1.000000
vt 0.500000 0.500000
vt 0.333333 1.000000
vt 0.333333 0.500000
vt 0.666667 1.000000
vt 0.500000 1.000000
vt 0.166667 1.000000
vt 0.166667 0.500000
vt -0.000000 1.000000
vt -0.000000 0.500000
vt 0.333333 0.500000
vt 0.500000 0.500000
vt 0.457846 0.370000
vt 0.250000 0.490000
vt 0.042154 0.370000
vt 0.042154 0.130000
vt 0.250000 0.010000
vt 0.457846 0.130000
vt 0.166667 1.000000
vt -0.000000 1.000000
vt 0.333333 1.000000
vt 0.833333 1.000000
vt 1.000000 1.000000
vt 0.666667 0.500000
vt 0.500000 0.500000
vt 0.666667 0.500000
vt 0.833333 0.500000
vt 0.166667 0.500000
vt 1.000000 0.500000
vt -0.000000 0.500000
vt 0.750000 0.490000
vt 0.957846 0.370000
vt 0.957846 0.130000
vt 0.750000 0.010000
vt 0.542154 0.130000
vt 0.542154 0.370000
vt 0.833333 0.500000
vt 1.000000 0.500000
vt -0.000000 0.500000
vt 0.166667 0.500000
vt 0.333333 0.500000
vn 0.5000 0.0000 -0.8660
vn 1.0000 0.0000 0.0000
vn 0.5000 0.0000 0.8660
vn -0.5000 0.0000 0.8660
vn 0.4853 0.2407 0.8406
vn -1.0000 0.0000 0.0000
vn -0.5000 0.0000 -0.8660
vn 0.0000 1.0000 0.0000
vn -0.4853 0.2407 -0.8406
vn -0.4853 0.2407 0.8406
vn 0.9706 0.2407 0.0000
vn -0.9706 0.2407 0.0000
vn 0.4853 0.2407 -0.8406
vn 0.4275 0.5186 0.7405
vn 0.0000 -1.0000 -0.0000
vn 0.4275 0.5186 -0.7405
vn -0.4275 0.5186 -0.7405
vn -0.4275 0.5186 0.7405
vn 0.8550 0.5186 0.0000
vn -0.8550 0.5186 0.0000
usemtl None
s off
f 1/1/1 2/2/1 4/3/1 3/4/1
f 3/4/2 4/3/2 6/5/2 5/6/2
f 5/6/3 6/5/3 8/7/3 7/8/3
f 7/8/4 8/7/4 10/9/4 9/10/4
f 8/7/5 6/5/5 15/11/5 16/12/5
f 9/10/6 10/9/6 12/13/6 11/14/6
f 11/14/7 12/13/7 2/15/7 1/16/7
f 7/8/4 9/10/4 23/17/4 22/18/4
f 13/19/8 14/20/8 18/21/8 17/22/8 16/23/8 15/24/8
f 2/15/9 12/13/9 18/25/9 14/26/9
f 10/9/10 8/7/10 16/12/10 17/27/10
f 6/5/11 4/3/11 13/28/11 15/11/11
f 12/13/12 10/9/12 17/27/12 18/25/12
f 4/3/13 2/2/13 14/29/13 13/28/13
f 21/30/14 22/18/14 28/31/14 27/32/14
f 3/4/2 5/6/2 21/30/2 20/33/2
f 9/10/6 11/14/6 24/34/6 23/17/6
f 1/1/1 3/4/1 20/33/1 19/35/1
f 5/6/3 7/8/3 22/18/3 21/30/3
f 11/14/7 1/16/7 19/36/7 24/34/7
f 25/37/15 26/38/15 27/39/15 28/40/15 29/41/15 30/42/15
f 19/35/16 20/33/16 26/43/16 25/44/16
f 24/34/17 19/36/17 25/45/17 30/46/17
f 22/18/18 23/17/18 29/47/18 28/31/18
f 20/33/19 21/30/19 27/32/19 26/43/19
f 23/17/20 24/34/20 30/46/20 29/47/20
